<?xml version="1.0" standalone="no"?>
<!DOCTYPE svg PUBLIC "-//W3C//DTD SVG 20010904//EN"
  "http://www.w3.org/TR/2001/REC-SVG-20010904/DTD/svg10.dtd">
<svg version="1.0" xmlns="http://www.w3.org/2000/svg"
     width="952.000000pt" height="952.000000pt" viewBox="0 0 952.000000 952.000000"
     preserveAspectRatio="xMidYMid meet">
  <metadata>
    Created by potrace 1.11, written by Peter Selinger 2001-2013
  </metadata>
  <g transform="translate(0.000000,952.000000) scale(0.100000,-0.100000)"
     fill="#000000" stroke="none">
    <path d="M3218 9515 c-2 -2 -41 -6 -88 -9 -73 -6 -130 -13 -250 -31 -22 -4
-78 -15 -149 -29 -13 -3 -60 -15 -105 -27 -45 -11 -85 -22 -91 -23 -5 -2 -17
-5 -25 -8 -8 -3 -46 -16 -85 -28 -123 -39 -381 -146 -435 -180 -8 -5 -40 -22
-70 -37 -30 -15 -57 -30 -60 -33 -5 -5 -27 -18 -75 -44 -11 -6 -22 -14 -25
-17 -3 -3 -24 -16 -47 -29 -24 -13 -43 -27 -43 -32 0 -4 -5 -8 -11 -8 -11 0
-82 -50 -87 -62 -2 -5 -8 -8 -14 -8 -5 0 -15 -6 -23 -12 -7 -7 -49 -42 -94
-77 -45 -36 -81 -68 -81 -73 0 -4 -5 -8 -11 -8 -11 0 -229 -216 -294 -291 -38
-43 -135 -165 -155 -195 -8 -12 -39 -56 -68 -98 -29 -41 -52 -79 -51 -82 0 -4
-6 -11 -15 -16 -9 -5 -16 -13 -16 -18 0 -5 -17 -38 -38 -72 -66 -108 -199
-389 -207 -438 0 -3 -6 -15 -14 -28 -7 -13 -14 -31 -16 -40 -2 -9 -11 -37 -20
-62 -9 -25 -18 -52 -21 -60 -2 -8 -13 -46 -24 -85 -11 -38 -22 -83 -24 -100
-2 -16 -9 -41 -14 -55 -5 -14 -10 -28 -10 -33 0 -4 -6 -31 -11 -60 -6 -28 -13
-63 -16 -77 -13 -65 -25 -127 -29 -146 -6 -29 -22 -124 -30 -181 -3 -17 -9
-58 -15 -90 -11 -63 -20 -129 -26 -182 -2 -19 -6 -48 -9 -65 -14 -93 -19 -131
-21 -169 -2 -23 -4 -42 -5 -42 -2 0 -7 -53 -14 -150 -2 -27 -5 -50 -6 -50 -1
0 -3 -27 -6 -60 -9 -139 -13 -190 -14 -190 -6 0 -14 -353 -14 -650 0 -381 8
-612 29 -825 4 -36 8 -90 10 -120 2 -30 4 -55 5 -55 1 0 3 -16 5 -35 7 -74 16
-156 20 -180 2 -14 7 -50 10 -80 7 -64 14 -109 20 -130 2 -8 7 -42 10 -75 4
-32 8 -62 11 -66 2 -4 6 -28 9 -55 3 -27 7 -60 11 -74 3 -14 7 -36 8 -50 3
-23 18 -100 31 -160 3 -14 8 -41 11 -60 9 -46 13 -65 20 -92 3 -13 6 -33 7
-45 1 -13 3 -23 7 -23 3 0 6 -12 7 -28 0 -15 20 -101 43 -192 23 -91 43 -172
45 -181 5 -24 26 -102 33 -119 3 -8 6 -17 6 -20 2 -10 29 -95 49 -155 11 -33
37 -103 59 -155 21 -52 40 -99 41 -105 1 -5 4 -12 7 -15 3 -3 16 -30 30 -60
13 -30 28 -60 32 -66 4 -6 22 -37 39 -70 18 -32 49 -88 70 -123 22 -34 39 -67
39 -72 0 -5 5 -9 10 -9 6 0 10 -5 10 -11 0 -6 6 -17 12 -24 28 -31 38 -44 38
-51 0 -3 10 -19 22 -34 13 -16 39 -50 58 -77 19 -26 37 -50 40 -53 3 -3 30
-34 60 -70 111 -132 216 -238 359 -363 85 -74 294 -227 310 -227 5 0 11 -4 13
-9 4 -12 228 -142 228 -133 0 4 4 2 8 -4 6 -9 183 -98 247 -123 11 -5 31 -14
45 -20 14 -7 32 -13 40 -15 8 -1 33 -10 55 -20 21 -9 46 -18 55 -20 8 -2 26
-7 40 -13 30 -12 216 -67 243 -72 4 0 8 -1 10 -2 7 -2 36 -8 67 -13 19 -4 42
-9 50 -11 8 -2 31 -7 50 -10 19 -3 42 -8 50 -10 8 -2 40 -7 70 -10 30 -3 71
-9 90 -12 99 -15 518 -24 537 -11 6 5 14 4 18 -2 3 -6 12 -7 18 -3 7 4 26 8
42 9 53 4 140 13 140 15 0 1 11 3 25 4 26 2 87 12 130 20 14 3 41 8 60 11 19
3 56 12 83 19 26 8 47 11 47 8 0 -3 7 1 17 8 9 8 18 13 20 11 5 -4 76 9 88 17
6 3 15 6 20 7 6 1 42 12 80 25 39 13 73 24 78 25 4 1 8 2 10 3 1 1 61 22 132
46 l130 45 15 -21 c23 -34 106 -110 163 -149 86 -59 176 -97 298 -126 90 -22
380 -7 459 24 14 5 29 10 33 10 13 0 119 44 165 68 72 38 194 129 262 196 76
74 200 221 200 237 0 6 5 11 10 11 6 0 10 7 10 15 0 8 4 15 8 15 5 0 14 11 20
25 7 14 16 31 22 38 22 26 59 87 53 87 -3 0 1 8 9 18 30 33 254 510 250 532 0
3 24 21 54 40 30 19 64 43 76 53 11 9 25 17 29 17 4 0 14 6 21 13 7 6 33 25
58 42 36 24 251 175 295 207 6 4 26 20 45 35 19 16 62 49 95 73 83 62 209 162
260 207 12 10 52 44 90 75 39 31 79 65 90 75 11 10 56 49 100 88 261 228 571
536 670 664 10 14 22 28 25 31 19 18 100 130 100 139 0 6 4 11 9 11 5 0 22 21
38 46 15 26 33 54 38 63 60 95 74 117 75 126 1 6 7 17 14 25 25 29 65 107 59
114 -3 3 -1 6 5 6 7 0 12 9 12 20 0 11 3 20 8 20 8 0 32 49 32 67 0 7 5 13 12
13 6 0 9 3 5 6 -3 3 3 23 14 42 10 20 19 40 19 43 0 4 8 24 17 45 9 22 17 41
18 44 1 3 4 12 8 20 3 8 13 38 22 65 10 28 20 57 23 65 10 28 12 35 47 168 33
124 73 322 81 402 15 149 19 220 19 400 -1 220 -9 335 -35 479 -6 30 -8 57 -5
59 3 3 0 11 -6 18 -6 8 -9 21 -5 29 3 8 1 15 -5 15 -6 0 -8 4 -5 8 14 23 -117
457 -174 579 -11 24 -20 45 -20 48 0 3 -28 61 -61 128 -34 67 -67 132 -73 144
-6 13 -15 23 -19 23 -5 0 -6 4 -3 9 3 5 -1 14 -9 21 -8 7 -15 17 -15 22 0 9
-156 247 -169 258 -3 3 -26 32 -51 65 -25 33 -48 62 -51 65 -3 3 -33 37 -66
75 -104 121 -300 308 -463 441 -19 16 -39 34 -43 41 -4 7 -15 13 -22 13 -8 0
-15 3 -15 8 0 4 -25 27 -56 52 -31 25 -64 52 -73 60 -9 8 -35 28 -56 44 -22
17 -42 32 -45 36 -3 3 -23 18 -45 35 -22 16 -42 31 -45 35 -6 6 -114 88 -146
110 -12 8 -66 47 -119 85 -53 39 -104 75 -113 80 -21 13 -33 22 -61 45 -13 11
-30 20 -37 20 -7 0 -14 4 -16 9 -1 4 -46 36 -98 70 -52 33 -102 66 -110 71 -8
5 -35 23 -60 38 -167 105 -212 132 -221 132 -14 0 -11 17 5 23 29 11 68 113
70 184 1 37 -1 73 -4 78 -4 6 -10 26 -14 45 -10 52 -73 176 -128 252 -60 82
-143 158 -172 158 -25 0 -58 -33 -100 -99 -28 -43 -69 -88 -117 -126 -28 -22
-54 -37 -166 -95 l-71 -37 -104 50 c-57 28 -105 51 -108 52 -10 3 -57 24 -120
53 -105 48 -150 68 -245 106 -49 20 -99 41 -110 46 -11 5 -45 19 -75 30 -30
11 -64 24 -75 29 -11 5 -36 14 -55 21 -19 7 -44 16 -55 20 -75 30 -142 55
-153 56 -8 2 -21 6 -30 10 -9 4 -19 8 -22 9 -26 6 -122 40 -147 51 -17 8 -36
14 -42 14 -6 0 -37 9 -70 20 -32 11 -67 22 -77 25 -11 2 -54 15 -97 29 -43 14
-81 25 -85 24 -4 -1 -14 1 -22 5 -23 9 -89 29 -108 32 -9 2 -17 4 -17 5 0 1
-7 3 -50 14 -11 2 -40 9 -65 15 -72 18 -84 21 -110 26 -14 3 -36 7 -50 10 -14
3 -38 7 -55 10 -16 2 -41 7 -55 9 -14 3 -50 7 -80 11 -30 3 -68 8 -85 11 -33
5 -482 14 -487 9z"/>
  </g>
</svg>
