<svg xmlns="http://www.w3.org/2000/svg" viewBox="0 0 115.35 118.71"><title>fav-tg</title>
  <g id="Layer_2" data-name="Layer 2">
    <g id="Layer_1-2" data-name="Layer 1">
      <path
        d="M78.25,12.29a125.22,125.22,0,0,1,24.28,17.13,38.79,38.79,0,0,1,1.65,56.05A125.13,125.13,0,0,1,53.9,116.39,38.89,38.89,0,0,1,4.36,89.56a125.11,125.11,0,0,1-1.57-59A38.79,38.79,0,0,1,50.64,1.31,125.76,125.76,0,0,1,78.25,12.29Z"
        style="fill:#004ead"/>
      <path d="M38.79,32.27V78.72H23.31V32.27H10.59V19.15H51.51V32.27Z" style="fill:#fff"/>
      <path
        d="M108.32,59.66a5.44,5.44,0,0,1,.66,2.81,6.89,6.89,0,0,1-.62,3.2,5.93,5.93,0,0,1-2,2q-7.65,5.16-11.21,7.65l-5.7,3.83q-3.37,18.42-8.85,29T66.71,118.71a10.08,10.08,0,0,1-7.39-2.8,9.85,9.85,0,0,1-2.85-7.34q0-6.33,5-13.58T80.15,77.15l.53-3.47a10.75,10.75,0,0,1-8.81,5,10.81,10.81,0,0,1-8.81-4q-3.3-4-3.29-10.5c0-4.75,1.67-9.4,3.29-13.49s6.62-10.08,9.62-12.08c-1.42-2.12-7-1-11-3a12.09,12.09,0,0,1-6-9c0-2-.17-7.19,3-10s6-3,9-4a46.22,46.22,0,0,0,9-4c2-1.36,2-3,3-3s6,6,3,9-5,3-8,4c-4.26,1.42-12.13,3-9,8,1.59,2.55,4,3,7,3s9,1,11,3A12.68,12.68,0,0,1,87.18,40a18.87,18.87,0,0,1,3.91-.36,5.55,5.55,0,0,1,3.16.67A3,3,0,0,1,95.19,43a12.55,12.55,0,0,1-.09,1.7q-.36,2.74-2.23,14c-.23,1.42-.49,3-.75,4.67s-.55,3.49-.85,5.39q6.86-5.34,13.17-9.44a4.1,4.1,0,0,1,2-.71A2.06,2.06,0,0,1,108.32,59.66ZM72.71,104.74q2.81-5.34,5.39-17a52,52,0,0,0-9.88,10.59q-3,4.73-3,8.28a4.88,4.88,0,0,0,.58,2.49,2.07,2.07,0,0,0,1.92,1C69.17,110.08,70.85,108.3,72.71,104.74ZM79,67.18a16.42,16.42,0,0,0,2.67-7.12l2.85-15.22a10.53,10.53,0,0,0-6.77,2.81,19.28,19.28,0,0,0-5,7.16,24.06,24.06,0,0,0-1.87,9.44A6.32,6.32,0,0,0,72,68.34a3.78,3.78,0,0,0,3.07,1.33C76.44,69.67,77.74,68.84,79,67.18Z"
        style="fill:#fab300"/>
    </g>
  </g>
</svg>
