<svg xmlns="http://www.w3.org/2000/svg" viewBox="0 0 209.73 215.1"><title>tg</title>
  <g id="Layer_2" data-name="Layer 2">
    <g id="Layer_1-2" data-name="Layer 1">
      <path
        d="M142.27,22.34a229.09,229.09,0,0,1,44.16,31.14,70.56,70.56,0,0,1,3,101.92A227.71,227.71,0,0,1,98,211.63,70.73,70.73,0,0,1,7.93,162.84,227.65,227.65,0,0,1,5.07,55.54a70.55,70.55,0,0,1,87-53.17A228.8,228.8,0,0,1,142.27,22.34Z"
        style="fill:#004ead"/>
      <path
        d="M66.62,141.78a5.42,5.42,0,0,1,.66,2.8,6.9,6.9,0,0,1-.62,3.21,5.83,5.83,0,0,1-2,2q-7.65,5.16-11.21,7.66l-5.7,3.82q-3.37,18.44-8.85,29T25,200.83a10.08,10.08,0,0,1-7.39-2.8,9.85,9.85,0,0,1-2.85-7.35q0-6.31,5-13.57t18.69-17.84L39,155.8a10.75,10.75,0,0,1-8.81,5,10.82,10.82,0,0,1-8.81-4q-3.3-4-3.29-10.5c0-4.74,1.67-9.4,3.29-13.48S28,122.71,31,120.71c-1.42-2.13-7-1-11-3a12.09,12.09,0,0,1-6-9c0-2-.17-7.19,3-10s6-3,9-4a46.22,46.22,0,0,0,9-4c2-1.36,2-3,3-3s6,6,3,9-5,3-8,4c-4.26,1.41-12.13,3-9,8,1.59,2.55,4,3,7,3s9,1,11,3a12.68,12.68,0,0,1,3.5,7.44,19.64,19.64,0,0,1,3.91-.35,5.55,5.55,0,0,1,3.16.67,3,3,0,0,1,.94,2.62,12.38,12.38,0,0,1-.09,1.69q-.36,2.76-2.23,14c-.23,1.43-.49,3-.75,4.68s-.55,3.48-.85,5.38q6.85-5.34,13.17-9.43a4,4,0,0,1,2.05-.71A2.06,2.06,0,0,1,66.62,141.78ZM31,186.86q2.79-5.34,5.38-17a51.47,51.47,0,0,0-9.88,10.59q-3,4.71-3,8.28a4.93,4.93,0,0,0,.58,2.49,2.07,2.07,0,0,0,1.92,1Q28.21,192.2,31,186.86Zm6.27-37.56A16.47,16.47,0,0,0,40,142.18L42.81,127a10.51,10.51,0,0,0-6.77,2.8,19.24,19.24,0,0,0-5,7.17,24,24,0,0,0-1.87,9.43,6.33,6.33,0,0,0,1.11,4.1,3.78,3.78,0,0,0,3.07,1.33C34.74,151.79,36,151,37.29,149.3Z"
        style="fill:#fab300"/>
      <path
        d="M109,134.17a6.1,6.1,0,0,1,.63,2.94c0,2.84-.87,4.53-2.59,5.07a40.41,40.41,0,0,1-11.74,2.13,22.27,22.27,0,0,1-6.68,12,16.44,16.44,0,0,1-11.3,4.49,15.79,15.79,0,0,1-9.12-2.58,16.33,16.33,0,0,1-5.74-6.85,21.91,21.91,0,0,1-2-9.26A27.19,27.19,0,0,1,63.1,130a20.27,20.27,0,0,1,7.12-8.28,18,18,0,0,1,10.06-3,13.88,13.88,0,0,1,10.9,4.67A20.06,20.06,0,0,1,96,135a54,54,0,0,0,10-1.78,5.14,5.14,0,0,1,1.24-.18A1.94,1.94,0,0,1,109,134.17ZM83,149a12.84,12.84,0,0,0,2.8-6.67,12.22,12.22,0,0,1-4.22-4.9,14.45,14.45,0,0,1-1.47-6.41,16.13,16.13,0,0,1,.26-2.84h-.44A7,7,0,0,0,74,131.63q-2.35,3.44-2.36,9.66,0,4.89,1.92,7.48a5.51,5.51,0,0,0,4.49,2.58A6.43,6.43,0,0,0,83,149Z"
        style="fill:#fab300"/>
      <path
        d="M149.16,134.17a6.1,6.1,0,0,1,.62,2.94q0,4.26-2.58,5.07a40.42,40.42,0,0,1-11.75,2.13,22.2,22.2,0,0,1-6.67,12,16.44,16.44,0,0,1-11.3,4.49,15.84,15.84,0,0,1-9.13-2.58,16.47,16.47,0,0,1-5.74-6.85,22.06,22.06,0,0,1-2-9.26A27.19,27.19,0,0,1,103.24,130a20.27,20.27,0,0,1,7.12-8.28,18,18,0,0,1,10-3,13.89,13.89,0,0,1,10.91,4.67A20.06,20.06,0,0,1,136.17,135a53.81,53.81,0,0,0,10-1.78,5.21,5.21,0,0,1,1.25-.18A1.94,1.94,0,0,1,149.16,134.17Zm-26,14.86a12.84,12.84,0,0,0,2.8-6.67,12.32,12.32,0,0,1-4.23-4.9,14.58,14.58,0,0,1-1.46-6.41,15.23,15.23,0,0,1,.26-2.84h-.44a7,7,0,0,0-5.92,3.42q-2.36,3.44-2.36,9.66,0,4.89,1.91,7.48a5.54,5.54,0,0,0,4.5,2.58A6.44,6.44,0,0,0,123.13,149Z"
        style="fill:#fab300"/>
      <path
        d="M176.48,154.21c1,5,1,4,3,9s3,8-2,8-8-5-9-8-1.76-6.32-2.59-9.11l-.09-.35a21.43,21.43,0,0,1-6.09,5.61,13.34,13.34,0,0,1-6.28,1.42,11.31,11.31,0,0,1-8.94-4.05q-3.53-4-3.52-10.55A29,29,0,0,1,144,133a27.21,27.21,0,0,1,8.27-9.92A24.51,24.51,0,0,1,164,118.42c.46-22.21,8.28-52.91,11.46-61.21s9.4-12.54,14.68-12.54a7.66,7.66,0,0,1,6.36,3.48,31.57,31.57,0,0,1,2.54,11.5c0,6.53-2.58,29.56-11.81,53.87a190.57,190.57,0,0,1-12.73,27C175.18,145.35,175.48,149.21,176.48,154.21ZM160,150.46a24.94,24.94,0,0,0,4.23-5.17,99.47,99.47,0,0,1-.89-13.44c0-1.83,0-3.26.09-4.27a14.31,14.31,0,0,0-8.1,6.5,20.53,20.53,0,0,0-3.2,11.21c0,4.34,1.48,6.5,4.45,6.5A5.38,5.38,0,0,0,160,150.46Zm22.51-83.25c-1.52,8.78-9,40-8.22,60,6.58-14.24,15.22-56.12,15.22-65a22.44,22.44,0,0,0-.92-5.94c-.39-1.25-.85-1.87-1.38-1.87C185.46,54.4,184,58.43,182.48,67.21Z"
        style="fill:#fab300"/>
      <path d="M79,62v46.46H63.52V62H50.8V48.84H91.72V62Z" style="fill:#fff"/>
      <path
        d="M114.08,48.84V81.23c0,1.74.06,3.52.2,5.33a14.5,14.5,0,0,0,1.18,4.94,8.24,8.24,0,0,0,3.12,3.59,10.93,10.93,0,0,0,6,1.39,10.72,10.72,0,0,0,6-1.39,8.51,8.51,0,0,0,3.12-3.59,14.08,14.08,0,0,0,1.23-4.94c.13-1.81.19-3.59.19-5.33V48.84H150.5V83.36q0,13.9-6.36,20.31t-19.55,6.4q-13.2,0-19.6-6.4T98.6,83.36V48.84Z"
        style="fill:#fff"/>
    </g>
  </g>
</svg>
